HIERARCHY
ROOT hip
{
	OFFSET 0.000000 0.000000 0.000000
	CHANNELS 6 Xposition Yposition Zposition Zrotation Yrotation Xrotation 
	JOINT lhipjoint
	{
		OFFSET 0.000000 0.000000 0.000000
		CHANNELS 3 Zrotation Yrotation Xrotation
		JOINT lfemur
		{
			OFFSET 1.363060 -1.794630 0.839290
			CHANNELS 3 Zrotation Yrotation Xrotation
			JOINT ltibia
			{
				OFFSET 2.448110 -6.726130 0.000000
				CHANNELS 3 Zrotation Yrotation Xrotation
				JOINT lfoot
				{
					OFFSET 2.562200 -7.039590 0.000000
					CHANNELS 3 Zrotation Yrotation Xrotation
					JOINT ltoes
					{
						OFFSET 0.157640 -0.433110 2.322550
						CHANNELS 3 Zrotation Yrotation Xrotation
						End Site
						{
							OFFSET 0.000000 0.000000 0.000000
						}
					}
				}
			}
		}
	}
	JOINT rhipjoint
	{
		OFFSET 0.000000 0.000000 0.000000
		CHANNELS 3 Zrotation Yrotation Xrotation
		JOINT rfemur
		{
			OFFSET -1.305520 -1.794630 0.839290
			CHANNELS 3 Zrotation Yrotation Xrotation
			JOINT rtibia
			{
				OFFSET -2.542530 -6.985550 0.000000
				CHANNELS 3 Zrotation Yrotation Xrotation
				JOINT rfoot
				{
					OFFSET -2.568260 -7.056230 0.000000
					CHANNELS 3 Zrotation Yrotation Xrotation
					JOINT rtoes
					{
						OFFSET -0.164730 -0.452590 2.363150
						CHANNELS 3 Zrotation Yrotation Xrotation
						End Site
						{
							OFFSET 0.000000 0.000000 0.000000
						}
					}
				}
			}
		}
	}
	JOINT lowerback
	{
		OFFSET 0.000000 0.000000 0.000000
		CHANNELS 3 Zrotation Yrotation Xrotation
		JOINT upperback
		{
			OFFSET 0.028270 2.035590 -0.193380
			CHANNELS 3 Zrotation Yrotation Xrotation
			JOINT thorax
			{
				OFFSET 0.056720 2.048850 -0.042750
				CHANNELS 3 Zrotation Yrotation Xrotation
				JOINT lowerneck
				{
					OFFSET 0.000000 0.000000 0.000000
					CHANNELS 3 Zrotation Yrotation Xrotation
					JOINT upperneck
					{
						OFFSET -0.054170 1.746240 0.172020
						CHANNELS 3 Zrotation Yrotation Xrotation
						JOINT head
						{
							OFFSET 0.104070 1.761360 -0.123970
							CHANNELS 3 Zrotation Yrotation Xrotation
							End Site
							{
								OFFSET 0.000000 0.000000 0.000000
							}
						}
					}
				}
				JOINT lclavicle
				{
					OFFSET 0.000000 0.000000 0.000000
					CHANNELS 3 Zrotation Yrotation Xrotation
					JOINT lhumerus
					{
						OFFSET 3.362410 1.200890 -0.311210
						CHANNELS 3 Zrotation Yrotation Xrotation
						JOINT lradius
						{
							OFFSET 4.983000 -0.000000 -0.000000
							CHANNELS 3 Zrotation Yrotation Xrotation
							JOINT lwrist
							{
								OFFSET 3.483560 -0.000000 -0.000000
								CHANNELS 3 Zrotation Yrotation Xrotation
								JOINT lhand
								{
									OFFSET 0.000000 0.000000 0.000000
									CHANNELS 3 Zrotation Yrotation Xrotation
									JOINT lfingers
									{
										OFFSET 0.715260 -0.000000 -0.000000
										CHANNELS 3 Zrotation Yrotation Xrotation
										End Site
										{
											OFFSET 0.000000 0.000000 0.000000
										}
									}
								}
								JOINT lthumb
								{
									OFFSET 0.000000 0.000000 0.000000
									CHANNELS 3 Zrotation Yrotation Xrotation
									End Site
									{
										OFFSET 0.000000 0.000000 0.000000
									}
								}
							}
						}
					}
				}
				JOINT rclavicle
				{
					OFFSET 0.000000 0.000000 0.000000
					CHANNELS 3 Zrotation Yrotation Xrotation
					JOINT rhumerus
					{
						OFFSET -3.136600 1.374050 -0.404650
						CHANNELS 3 Zrotation Yrotation Xrotation
						JOINT rradius
						{
							OFFSET -5.241900 -0.000000 -0.000000
							CHANNELS 3 Zrotation Yrotation Xrotation
							JOINT rwrist
							{
								OFFSET -3.444170 -0.000000 -0.000000
								CHANNELS 3 Zrotation Yrotation Xrotation
								JOINT rhand
								{
									OFFSET 0.000000 0.000000 0.000000
									CHANNELS 3 Zrotation Yrotation Xrotation
									JOINT rfingers
									{
										OFFSET -0.622530 -0.000000 -0.000000
										CHANNELS 3 Zrotation Yrotation Xrotation
										End Site
										{
											OFFSET 0.000000 0.000000 0.000000
										}
									}
								}
								JOINT rthumb
								{
									OFFSET 0.000000 0.000000 0.000000
									CHANNELS 3 Zrotation Yrotation Xrotation
									End Site
									{
										OFFSET 0.000000 0.000000 0.000000
									}
								}
							}
						}
					}
				}
			}
		}
	}
}
MOTION
Frames: 11
Frame Time: 0.008333
-3.475156 17.580870 3.979426 -172.541591 20.160145 175.162371 -2.821912 3.187398 2.494475 -5.912407 14.232235 -0.123032 7.032266 14.505690 48.940839 1.164684 -6.033380 4.444570 4.435900 -12.719000 -38.325300 -0.336397 -4.270340 1.304586 33.210640 -7.248722 -10.451854 -4.465370 -10.300844 36.725777 0.333145 -6.815617 -17.495681 -0.027600 1.071600 -2.945700 11.049008 -2.383826 6.146039 2.475033 -1.992843 -3.301158 2.347413 0.301771 5.521019 2.247176 -0.786953 -7.685707 -8.610108 0.825772 0.302756 -1.709800 0.910300 -0.460300 1.924305 3.019045 0.841782 -81.382467 4.044438 48.938414 49.306644 -62.178769 -22.834050 0.547383 -0.323315 142.374614 31.001632 13.117555 7.407800 -7.125000 0.000000 0.000000 3.702700 44.339900 -0.060400 0.632360 1.075174 4.029691 73.199176 -16.651704 23.436709 -32.097960 44.885080 -9.065006 1.633788 -3.434599 79.462819 8.021129 -10.751190 -0.896000 7.125000 0.000000 0.000000 27.269300 -40.210500 3.525700 
-3.475566 17.576463 4.042972 -172.398255 19.385381 175.447336 -2.816123 3.191761 2.519629 -6.239831 14.139704 0.847777 6.530146 14.029190 46.972070 1.260087 -6.863687 3.992945 4.113900 -12.310500 -36.839400 -0.320872 -4.266845 1.301932 33.497300 -7.282358 -11.202796 -4.512132 -10.380237 36.965851 0.374124 -7.002822 -17.541884 -0.013200 0.740700 -2.035500 10.975104 -2.547948 5.731157 2.506942 -2.290853 -3.336980 2.390446 0.145301 5.615214 2.320789 -0.780500 -7.885751 -8.598768 0.834280 0.266841 -1.732100 0.915200 -0.439400 1.910630 3.013795 0.832510 -81.263757 3.727671 49.466315 49.691586 -62.346089 -23.055830 0.565189 -0.335585 142.644963 30.973350 13.266343 7.474600 -7.125000 0.000000 0.000000 3.679300 44.480000 -0.047300 0.666512 1.084380 4.029740 73.606437 -17.103967 22.615435 -32.557959 45.239193 -9.333520 1.624631 -3.476105 80.003874 8.064005 -11.172297 -0.932100 7.125000 0.000000 0.000000 27.449400 -40.607700 3.256500 
-3.480076 17.568366 4.111028 -172.256266 18.706671 175.737488 -2.812779 3.196731 2.542050 -6.560775 14.130652 1.752790 6.023428 13.515845 44.917655 1.357294 -7.721581 3.506525 3.741300 -11.808000 -35.055900 -0.308299 -4.261319 1.299638 33.775761 -7.264295 -11.996514 -4.569154 -10.475408 37.257393 0.413923 -7.165269 -17.543305 -0.003800 0.396300 -1.089000 10.917421 -2.694314 5.385200 2.540051 -2.548593 -3.373261 2.449535 0.008012 5.681657 2.394076 -0.767429 -8.108638 -8.610739 0.850144 0.225080 -1.766400 0.922700 -0.410100 1.896737 3.004084 0.820920 -81.129203 3.371332 50.016023 50.123040 -62.524454 -23.304892 0.585551 -0.348346 142.782080 30.936671 13.352671 7.501100 -7.125000 0.000000 0.000000 3.651700 44.543900 -0.041200 0.713287 1.093699 4.028070 73.936916 -17.562176 21.876324 -33.108467 45.648275 -9.648281 1.609910 -3.516439 80.538829 8.053539 -11.658203 -0.961300 7.125000 0.000000 0.000000 27.614500 -41.062700 2.937600 
-3.483048 17.556784 4.180211 -172.141015 18.036473 175.988012 -2.809883 3.204239 2.562012 -6.871402 14.178754 2.647931 5.522422 12.970686 42.802995 1.439798 -8.453285 2.951844 3.352600 -11.245100 -33.110900 -0.296224 -4.256861 1.294792 34.011865 -7.339900 -12.826895 -4.635826 -10.585035 37.594675 0.436401 -7.243278 -17.509251 -0.000300 0.114200 -0.313700 10.809463 -2.840688 5.087499 2.574501 -2.797367 -3.405414 2.545682 -0.128545 5.745627 2.447681 -0.762678 -8.324858 -8.602055 0.856411 0.177165 -1.787800 0.926900 -0.385400 1.880368 2.994848 0.809256 -80.964512 2.994194 50.600062 50.576542 -62.709511 -23.564035 0.610926 -0.358180 142.848312 30.860756 13.503767 7.554000 -7.125000 0.000000 0.000000 3.588700 44.675800 -0.028800 0.764086 1.100250 4.026016 74.256148 -18.001334 21.130966 -33.710190 46.085941 -9.981838 1.588166 -3.550307 81.157408 7.916936 -12.093165 -0.958800 7.125000 0.000000 0.000000 27.666700 -41.481000 2.629400 
-3.485405 17.544075 4.250727 -172.027236 17.363658 176.237223 -2.806243 3.211640 2.581077 -7.166031 14.226610 3.514634 5.036532 12.403729 40.661907 1.491600 -8.885828 2.325561 2.913600 -10.553900 -30.789800 -0.283214 -4.252765 1.287213 34.234781 -7.532265 -13.727739 -4.710187 -10.707006 37.967998 0.460010 -7.268468 -17.340356 -0.001300 -0.231000 0.634800 10.685771 -2.986230 4.803421 2.609479 -3.042268 -3.435183 2.657281 -0.264237 5.809062 2.498931 -0.778809 -8.504980 -8.595986 0.841127 0.107047 -1.810800 0.923300 -0.382000 1.860919 2.990141 0.801456 -80.835362 2.661731 51.054119 51.120314 -62.931808 -23.894584 0.638081 -0.375801 142.955654 30.919291 13.619537 7.619900 -7.125000 0.000000 0.000000 3.651600 44.773800 -0.020400 0.823896 1.108116 4.025386 74.541626 -18.474060 20.442346 -34.428465 46.601961 -10.372183 1.560008 -3.580609 81.738663 7.651408 -12.549984 -0.924700 7.125000 0.000000 0.000000 27.623200 -41.922800 2.292900 
-3.486020 17.529418 4.322370 -171.897502 16.699669 176.477266 -2.801635 3.220224 2.598489 -7.410257 14.287734 4.355822 4.578469 11.829545 38.543442 1.515602 -8.985399 1.482667 2.513200 -9.861900 -28.530500 -0.271941 -4.247772 1.277358 34.475989 -7.751926 -14.638417 -4.787693 -10.832591 38.353936 0.480027 -7.265380 -17.135461 -0.010800 -0.670800 1.843500 10.561986 -3.132435 4.554301 2.645990 -3.278425 -3.460043 2.787938 -0.395747 5.862295 2.512360 -0.821907 -8.602771 -8.568982 0.804671 -0.019331 -1.814100 0.917700 -0.427000 1.837452 2.993510 0.798403 -80.726910 2.339172 51.452900 51.646265 -63.145852 -24.215256 0.666131 -0.391836 143.020492 30.987241 13.751031 7.698400 -7.125000 0.000000 0.000000 3.723900 44.891500 -0.010000 0.886646 1.120397 4.028405 74.847167 -18.959422 19.703656 -35.276394 47.201848 -10.823541 1.527334 -3.604289 82.426910 7.252179 -12.925866 -0.850500 7.125000 0.000000 0.000000 27.445000 -42.305600 1.990700 
-3.485098 17.513224 4.395243 -171.774852 16.052473 176.675457 -2.797717 3.230911 2.614743 -7.614493 14.354543 5.194855 4.159858 11.264154 36.502481 1.529452 -8.851406 0.284594 2.237600 -9.344400 -26.878600 -0.263035 -4.242747 1.265760 34.712058 -8.006911 -15.517653 -4.863744 -10.954901 38.729196 0.502013 -7.236314 -16.845398 -0.033600 -1.183400 3.253700 10.393759 -3.290003 4.365478 2.686968 -3.516501 -3.480548 2.967289 -0.532020 5.900772 2.488708 -0.879204 -8.643398 -8.516836 0.756467 -0.169661 -1.798400 0.910600 -0.497600 1.808345 2.998288 0.797527 -80.600634 2.041730 51.829053 52.284660 -63.396164 -24.608613 0.699476 -0.408736 143.009874 30.997488 13.853179 7.740800 -7.125000 0.000000 0.000000 3.746400 44.962800 -0.003400 0.954287 1.132999 4.032858 75.162402 -19.447816 18.926764 -36.230549 47.858494 -11.325543 1.487673 -3.621407 83.203330 6.702188 -13.234459 -0.731900 7.125000 0.000000 0.000000 27.118900 -42.640500 1.717600 
-3.483458 17.497235 4.471601 -171.648049 15.401056 176.872418 -2.791725 3.240221 2.630605 -7.774128 14.398449 5.927014 3.784524 10.723994 34.589369 1.548660 -8.643827 -1.077922 2.077100 -9.024900 -25.873100 -0.254204 -4.236445 1.254505 34.968485 -8.269231 -16.399210 -4.934117 -11.069285 39.076341 0.528675 -7.230945 -16.560661 -0.063100 -1.621100 4.459800 10.223366 -3.450258 4.227838 2.725045 -3.749806 -3.502938 3.135319 -0.666724 5.905213 2.493166 -0.949971 -8.655740 -8.468587 0.692341 -0.347327 -1.792200 0.897400 -0.585500 1.777366 3.001664 0.798073 -80.479703 1.755002 52.122764 52.928078 -63.641978 -25.011217 0.735510 -0.425699 142.988181 31.048365 14.004828 7.823200 -7.125000 0.000000 0.000000 3.806800 45.092900 0.008700 1.027408 1.151095 4.037319 75.473595 -19.962741 18.210781 -37.342017 48.603756 -11.908696 1.446380 -3.633835 83.894032 6.039927 -13.495764 -0.577500 7.125000 0.000000 0.000000 26.675500 -42.937100 1.472100 
-3.480998 17.484321 4.550111 -171.546003 14.765730 177.042862 -2.785466 3.245723 2.646531 -7.945837 14.356368 6.555031 3.452598 10.218622 32.827848 1.557660 -8.270371 -2.492620 1.998000 -8.861900 -25.364400 -0.246559 -4.226779 1.242903 35.202097 -8.491185 -17.229698 -4.997167 -11.173612 39.389035 0.547368 -7.206657 -16.303494 -0.105000 -2.089700 5.753500 10.010461 -3.621441 4.165898 2.761670 -3.984556 -3.525310 3.326857 -0.806688 5.872804 2.454911 -1.033057 -8.626054 -8.378901 0.622988 -0.581718 -1.755500 0.889500 -0.707100 1.742683 3.006441 0.799993 -80.362172 1.475266 52.365356 53.570410 -63.877735 -25.412376 0.773748 -0.439332 142.873059 31.050528 14.151451 7.889500 -7.125000 0.000000 0.000000 3.823800 45.212400 0.020100 1.093323 1.172633 4.043193 75.779826 -20.419938 17.557942 -38.506591 49.362126 -12.526575 1.401156 -3.645473 84.557832 5.317472 -13.752917 -0.401800 7.125000 0.000000 0.000000 26.174000 -43.232200 1.233100 
-3.478128 17.473662 4.632311 -171.441920 14.148567 177.192649 -2.776908 3.245990 2.664965 -8.109373 14.197727 7.096772 3.159726 9.752273 31.221370 1.556020 -7.784652 -3.862196 1.946500 -8.753700 -25.027700 -0.240496 -4.213182 1.232830 35.450221 -8.611662 -18.003773 -5.054801 -11.267609 39.672484 0.575877 -7.247712 -16.107046 -0.151800 -2.510800 6.919700 9.795428 -3.778541 4.199894 2.792989 -4.184899 -3.551335 3.502939 -0.930783 5.783772 2.462722 -1.129167 -8.604288 -8.298823 0.528426 -0.804908 -1.736400 0.865100 -0.816600 1.706039 2.999738 0.797488 -80.190666 1.196486 52.615071 54.329186 -64.138048 -25.889239 0.817696 -0.455052 142.776872 30.984406 14.313775 7.941600 -7.125000 0.000000 0.000000 3.778900 45.334300 0.031200 1.164277 1.199692 4.046807 76.103516 -20.889070 16.947015 -39.808741 50.177468 -13.226979 1.359520 -3.656247 85.132642 4.602039 -13.972550 -0.221200 7.125000 0.000000 0.000000 25.656500 -43.492000 1.027400 
-3.475259 17.462285 4.716869 -171.343616 13.561870 177.321495 -2.767954 3.243110 2.685416 -8.268979 13.947763 7.587964 2.900377 9.321832 29.754025 1.549732 -7.247263 -5.196041 1.929000 -8.716600 -24.912800 -0.237036 -4.196529 1.222936 35.699162 -8.668094 -18.725008 -5.110504 -11.355871 39.942941 0.612473 -7.340479 -15.956431 -0.198400 -2.868400 7.912600 9.551900 -3.943098 4.322571 2.824190 -4.379497 -3.578671 3.706880 -1.055346 5.664137 2.433704 -1.216341 -8.628974 -8.183703 0.445163 -1.033588 -1.691900 0.847700 -0.911300 1.670231 2.986831 0.794033 -80.041887 0.907015 52.786796 55.034871 -64.370648 -26.331118 0.864325 -0.464997 142.647507 30.893656 14.557832 8.036100 -7.125000 0.000000 0.000000 3.710200 45.549500 0.050400 1.231017 1.224589 4.046895 76.401300 -21.291604 16.435862 -41.177877 51.001905 -13.984769 1.320382 -3.671306 85.642394 3.966862 -14.256183 -0.055600 7.125000 0.000000 0.000000 25.223900 -43.802300 0.799700 
